<svg xmlns="http://www.w3.org/2000/svg" version="1.1" viewBox="-5.0 -10.0 110.0 135.0">
 <path d="m59.359 14.359c-9.5195 0-18.172 3.7812-24.57 9.8906h-20.18v3.3203h17.102c-1.5898 1.9609-2.9609 4.0898-4.1094 6.3594h-19.402v3.3203h17.93c-0.78906 2.0391-1.3906 4.1602-1.7891 6.3594h-19.34v3.3203h18.879c-0.089844 1.0195-0.16016 2.0391-0.16016 3.0781 0 1.1094 0.070312 2.1992 0.17188 3.2812h-18.891v3.3203h19.371c0.41016 2.1992 1.0391 4.3203 1.8398 6.3594h-18v3.3203h19.5c1.1719 2.2695 2.5508 4.4102 4.1719 6.3594h-17.273v3.3203h20.422c6.3789 5.9805 14.922 9.6797 24.34 9.6797 19.641-0.007813 35.629-16 35.629-35.648s-15.988-35.641-35.641-35.641zm0 67.961c-7.1797 0-13.801-2.3789-19.172-6.3594h23v-3.3203h-26.848c-1.8711-1.8984-3.4883-4.0508-4.8516-6.3594h38.262v-3.3203h-39.969c-0.89062-2.0195-1.5898-4.1484-2.0508-6.3594h45.23v-3.3203h-45.75c-0.10938-1.0781-0.17188-2.1797-0.17188-3.2812 0-1.0391 0.058594-2.0586 0.16016-3.0781h45.75v-3.3203h-45.258c0.44922-2.2109 1.1211-4.3398 1.9883-6.3594h40.07v-3.3203h-38.391c1.3281-2.3203 2.9414-4.4492 4.7812-6.3594l27.059-0.003906v-3.3203h-23.289c5.4219-4.1016 12.141-6.5703 19.449-6.5703 17.82 0 32.32 14.5 32.32 32.32 0 17.82-14.488 32.332-32.32 32.332z"/>
<text x="0.0" y="117.5" font-size="5.0" font-weight="bold" font-family="Arbeit Regular, Helvetica, Arial-Unicode, Arial, Sans-serif" fill="#000000">Created by Ikmila Saniya</text><text x="0.0" y="122.5" font-size="5.0" font-weight="bold" font-family="Arbeit Regular, Helvetica, Arial-Unicode, Arial, Sans-serif" fill="#000000">from Noun Project</text></svg>