<svg xmlns="http://www.w3.org/2000/svg" version="1.1" viewBox="-5.0 -10.0 110.0 135.0">
 <path d="m94.32 10.625c-0.16797-0.003906-0.33594 0.019531-0.49219 0.070312v0.003907l-88.656 36.215c-0.50391 0.20703-0.84375 0.67969-0.88281 1.2227-0.039062 0.53906 0.23438 1.0586 0.70313 1.332l16.832 9.8945 12.535 29.141h-0.003906c0.24609 0.58203 0.84375 0.93359 1.4727 0.86328 0.62891-0.066407 1.1367-0.53906 1.25-1.1602l3.4102-17.871 24.859 14.605v0.003906c0.36328 0.21094 0.79688 0.25391 1.1914 0.12109 0.39844-0.13672 0.71484-0.44141 0.86719-0.82812l28.301-71.691c0.011719-0.12891 0.007813-0.25781-0.011719-0.38281 0.011719-0.10937 0.011719-0.21875 0-0.32422-0.10547-0.6875-0.68359-1.1992-1.375-1.2148zm-3.9844 7.7266-24.973 63.289-23.582-13.871zm-8.8125 0.46484-58.609 37.871-13.984-8.2109zm2.7656 1.6133-45.746 46.562-0.082031 0.082031h-0.007813c-0.003906 0.011719-0.007813 0.019531-0.015625 0.027343-0.1875 0.19531-0.31641 0.4375-0.375 0.70313l-2.9141 15.293-10.41-24.188z"/>
<text x="0.0" y="117.5" font-size="5.0" font-weight="bold" font-family="Arbeit Regular, Helvetica, Arial-Unicode, Arial, Sans-serif" fill="#000000">Created by Alzam</text><text x="0.0" y="122.5" font-size="5.0" font-weight="bold" font-family="Arbeit Regular, Helvetica, Arial-Unicode, Arial, Sans-serif" fill="#000000">from Noun Project</text></svg>