<svg xmlns="http://www.w3.org/2000/svg" version="1.1" viewBox="-5.0 -10.0 110.0 135.0">
 <path d="m9.375 84.723c0 1.9609 1.5977 3.5586 3.5586 3.5586h29.949c1.9609 0 3.5586-1.5977 3.5586-3.5586v-1.4219c0-2.6523-2.0078-4.8398-4.5859-5.1289v-24.168h5.8047v1.8633c-1.5977 0.50391-2.7617 2-2.7617 3.7539v5.3281c0 2.168 1.7656 3.9336 3.9336 3.9336h0.019531v1.8633c-0.24219 0.14453-0.46484 0.32812-0.64062 0.5625l-0.76172 1.0156c-0.51562 0.68359-0.59375 1.582-0.21484 2.3477 0.38281 0.76562 1.1523 1.2422 2.0078 1.2422h1.5234c0.85547 0 1.625-0.47656 2.0078-1.2422 0.38281-0.76562 0.30078-1.6641-0.21484-2.3477l-0.76172-1.0117c-0.17578-0.23438-0.39844-0.41797-0.64062-0.56641v-1.8633h0.63672c2.168 0 3.9336-1.7656 3.9336-3.9336v-5.3281c0-1.7539-1.1641-3.2461-2.7617-3.7539v-1.8672h5.8242v24.133h-0.058593c-2.8477 0-5.1641 2.3164-5.1641 5.1641v1.4219c0 1.9609 1.5938 3.5586 3.5586 3.5586h29.949c1.9609 0 3.5586-1.5977 3.5586-3.5586v-1.4219c0-2.8477-2.3164-5.1641-5.1641-5.1641h-1.4141v-19.488h0.75391c1.3828 0 2.6172-0.71875 3.2969-1.9258 0.67969-1.207 0.65625-2.6328-0.0625-3.8164l-5.7578-9.5c-0.68359-1.125-1.9219-1.8242-3.2344-1.8242h-12.484v-6.1445h1.8594c2.2891 0 4.1484-1.8594 4.1484-4.1484v-0.39844h1.3828c1.5469 0 2.8789-0.88281 3.4844-2.3047 0.60156-1.4219 0.30859-2.9961-0.76562-4.1055l-11.227-11.605c-0.70703-0.73438-1.6992-1.1523-2.7188-1.1523h-25.445c-1.0195 0-2.0117 0.42188-2.7188 1.1523l-11.227 11.605c-1.0742 1.1094-1.3672 2.6836-0.76562 4.1055 0.60156 1.4219 1.9375 2.3047 3.4844 2.3047h1.7031v0.39844c0 2.2891 1.8594 4.1484 4.1484 4.1484h2.1758v6.1445h-13.098c-1.3125 0-2.5547 0.69922-3.2344 1.8203l-5.7578 9.5c-0.71875 1.1836-0.74219 2.6094-0.0625 3.8164 0.67969 1.207 1.9102 1.9258 3.2969 1.9258h0.73047v19.488h-1.4141c-2.8477 0-5.1641 2.3164-5.1641 5.1641v1.4219zm39.98-11.105 0.64453-0.85547 0.64062 0.85547zm3.9531-14.586h-5.9961c0.23828-0.60156 0.82031-1.0352 1.4961-1.0391h2.9883c0.69922 0.003906 1.2773 0.43359 1.5117 1.0391zm-6.1133 2.3047h6.2227v0.85547h-6.2227zm4.5938 5.25h-2.9609c-0.89844 0-1.6328-0.73047-1.6328-1.6328v-0.46094h6.2227v0.46094c0 0.89844-0.73047 1.6328-1.6328 1.6328zm-1.1328-10.895h-0.69922v-1.6836h0.69922zm37.664 27.613v1.4219c0 0.69141-0.5625 1.2539-1.2539 1.2539h-29.949c-0.69141 0-1.2539-0.5625-1.2539-1.2539v-1.4219c0-1.5781 1.2852-2.8633 2.8633-2.8633h26.734c1.5781 0 2.8633 1.2852 2.8633 2.8633zm-13.531-5.1641v-1.5938h1.4805v1.5938zm-4.4453 0v-1.5938h2.1406v1.5938zm-3.7852-6.0391h1.4805v2.1406h-1.4805zm3.7852 0h2.1406v2.1406h-2.1406zm5.9258 2.1406h-1.4805v-2.1406h1.4805zm0-4.4453h-1.4805v-2.7461c0-0.63672-0.51562-1.1523-1.1523-1.1523s-1.1523 0.51562-1.1523 1.1523v2.7461h-2.1406v-2.7461c0-0.63672-0.51562-1.1523-1.1523-1.1523-0.63672 0-1.1523 0.51562-1.1523 1.1523v2.7461h-1.4805v-11.148h9.7109zm-9.7109 6.7461h1.4805v1.5938h-1.4805zm15.184 1.5938h-3.1719v-19.488h3.1719zm-2.6992-34.254c0.51562 0 1 0.27344 1.2656 0.71484l5.7578 9.5c0.28125 0.46484 0.28906 1.0234 0.023438 1.4922-0.26562 0.47266-0.74609 0.75391-1.2891 0.75391h-18.242v-12.461zm-54.355-16.199c-0.089844-0.21094-0.33203-0.95312 0.30078-1.6055l11.227-11.605c0.27734-0.28516 0.66406-0.44922 1.0625-0.44922h25.445c0.39844 0 0.78516 0.16406 1.0625 0.44922l11.227 11.605c0.63281 0.65234 0.39062 1.3945 0.30078 1.6055-0.089844 0.21094-0.45312 0.90234-1.3633 0.90234h-47.902c-0.91016 0-1.2734-0.69141-1.3633-0.90234zm5.3672 3.6055v-0.39844h40.207v0.39844c0 1.0195-0.82812 1.8438-1.8438 1.8438h-36.52c-1.0195 0-1.8438-0.82812-1.8438-1.8438zm11.801 14.938v-10.789h4.4922v1.9023c-1.3672 0.44141-2.3672 1.7109-2.3672 3.2227v1.0664c0 1.5117 1 2.7852 2.3672 3.2227v1.375zm5.5273-3.5c-0.60547 0-1.0977-0.49219-1.0977-1.0977v-1.0664c0-0.60547 0.49219-1.0977 1.0977-1.0977h6.1562c0.60547 0 1.0977 0.49219 1.0977 1.0977v1.0664c0 0.60547-0.49219 1.0977-1.0977 1.0977zm5.0078-5.5664h-3.7383v-1.7227h3.7383zm-3.7383 7.8672h3.7383v1.1992h-3.7383zm6.0391-0.21484c1.3086-0.47266 2.25-1.7188 2.25-3.1875v-1.0664c0-1.4688-0.94141-2.7109-2.25-3.1875v-1.9375h4.0938v10.789h-4.0938zm-15.141-9.3789v11.941c0 0.63672 0.51562 1.1523 1.1523 1.1523h19.23c0.63672 0 1.1523-0.51562 1.1523-1.1523v-11.941h3.1719v42.699h-3.1719v-25.285c0-0.63672-0.51563-1.1523-1.1523-1.1523h-19.23c-0.63672 0-1.1523 0.51563-1.1523 1.1523v25.285h-3.1719v-42.699zm-7.6172 42.699v-1.5938h2.1406v1.5938zm-4.4453 0v-1.5938h2.1406v1.5938zm-3.7617 0v-1.5938h1.4609v1.5938zm10.348-19.488v11.148h-2.1406v-2.7461c0-0.63672-0.51562-1.1523-1.1523-1.1523s-1.1523 0.51562-1.1523 1.1523v2.7461h-2.1406v-2.7461c0-0.63672-0.51562-1.1523-1.1523-1.1523-0.63672 0-1.1523 0.51562-1.1523 1.1523v2.7461h-1.4609v-11.148zm-10.348 13.449h1.4609v2.1406h-1.4609zm3.7617 0h2.1406v2.1406h-2.1406zm4.4453 0h2.1406v2.1406h-2.1406zm-18.004-16.508c-0.26563-0.47266-0.25781-1.0312 0.023437-1.4922l5.7578-9.5c0.26562-0.44141 0.75391-0.71484 1.2656-0.71484h13.098v12.461h-18.855c-0.54297 0-1.0234-0.28125-1.2891-0.75391zm4.3203 3.0547h3.1719v19.488h-3.1719zm-6.5781 24.652c0-1.5781 1.2852-2.8633 2.8633-2.8633h26.734c1.5781 0 2.8633 1.2852 2.8633 2.8633v1.4219c0 0.69141-0.5625 1.2539-1.2539 1.2539l-29.945 0.007812c-0.69141 0-1.2539-0.5625-1.2539-1.2539v-1.4219z"/>
<text x="0.0" y="117.5" font-size="5.0" font-weight="bold" font-family="Arbeit Regular, Helvetica, Arial-Unicode, Arial, Sans-serif" fill="#000000">Created by Manda</text><text x="0.0" y="122.5" font-size="5.0" font-weight="bold" font-family="Arbeit Regular, Helvetica, Arial-Unicode, Arial, Sans-serif" fill="#000000">from Noun Project</text></svg>