<svg xmlns="http://www.w3.org/2000/svg" version="1.1" viewBox="-5.0 -10.0 110.0 135.0">
 <path d="m46 77.891c0-0.45703-0.10156-0.91016-0.29688-1.3203l-0.94141-2.0039c-0.085938-0.1875-0.16406-0.375-0.23828-0.56641h-29.047c-0.074218 0.19141-0.15234 0.37891-0.23828 0.56641l-0.94141 2.0039c-0.19531 0.41016-0.29688 0.86328-0.29688 1.3203 0 1.7188 1.3906 3.1094 3.1094 3.1094h25.781c1.7188 0 3.1094-1.3906 3.1094-3.1094zm-18.23 7.1094c0.54688 0.61328 1.3438 1 2.2305 1s1.6836-0.38672 2.2305-1zm53.23-15h5v-4h-5zm-9 0h5v-4h-5zm-9 0h5v-4h-5zm-9 0h5v-4h-5zm-6 0h2v-4h-2zm-32 0h28v-40h-28zm32-8h38v-24h-38zm33-28h5v-4h-5zm-9 0h5v-4h-5zm-9 0h5v-4h-5zm-9 0h5v-4h-5zm-6 0h2v-4h-2zm-18-20c-0.88672 0-1.6836 0.38672-2.2305 1h4.4609c-0.54688-0.61328-1.3438-1-2.2305-1zm16 8.1094c0-1.7188-1.3906-3.1094-3.1094-3.1094h-25.781c-1.7188 0-3.1094 1.3906-3.1094 3.1094 0 0.45703 0.10156 0.91016 0.29688 1.3203l0.94141 2.0039c0.085938 0.1875 0.16406 0.375 0.23828 0.56641h29.047c0.074218-0.19141 0.15234-0.37891 0.23828-0.56641l0.94141-2.0039c0.19531-0.41016 0.29688-0.86328 0.29688-1.3203zm4 0c0 1.0469-0.23047 2.0781-0.67578 3.0273l-0.41016 0.86328h39.086c1.1055 0 2 0.89453 2 2v44c0 1.1055-0.89453 2-2 2h-39.086l0.41016 0.86328c0.44531 0.94922 0.67578 1.9805 0.67578 3.0273 0 3.9258-3.1836 7.1094-7.1094 7.1094h-6.1797c-0.86328 2.8906-3.5391 5-6.7109 5s-5.8477-2.1094-6.7109-5h-6.1797c-3.9258 0-7.1094-3.1836-7.1094-7.1094 0-1.0469 0.23047-2.0781 0.67578-3.0273l0.94141-2c0.22266-0.46875 0.34766-0.97266 0.375-1.4844l0.007812-0.21875v-42.32c0-0.58594-0.12891-1.168-0.38281-1.7031l-0.94141-2c-0.44531-0.94922-0.67578-1.9805-0.67578-3.0273 0-3.9258 3.1836-7.1094 7.1094-7.1094h6.1797c0.86328-2.8906 3.5391-5 6.7109-5s5.8477 2.1094 6.7109 5h6.1797c3.9258 0 7.1094 3.1836 7.1094 7.1094z"/>
<text x="0.0" y="117.5" font-size="5.0" font-weight="bold" font-family="Arbeit Regular, Helvetica, Arial-Unicode, Arial, Sans-serif" fill="#000000">Created by HideMaru</text><text x="0.0" y="122.5" font-size="5.0" font-weight="bold" font-family="Arbeit Regular, Helvetica, Arial-Unicode, Arial, Sans-serif" fill="#000000">from Noun Project</text></svg>