<svg xmlns="http://www.w3.org/2000/svg" version="1.1" viewBox="-5.0 -10.0 110.0 135.0">
 <path d="m15.582 50c0.29688 0.38672 0.63672 0.8125 1.0117 1.2695 1.8125 2.2227 4.4492 5.1758 7.7578 8.1172 6.707 5.9766 15.641 11.445 25.648 11.445s18.941-5.4688 25.652-11.445c3.3047-2.9414 5.9453-5.8945 7.7539-8.1172 0.375-0.45703 0.71484-0.88281 1.0117-1.2695-0.29688-0.38672-0.63672-0.8125-1.0117-1.2695-1.8086-2.2227-4.4492-5.1758-7.7539-8.1172-6.7109-5.9766-15.645-11.445-25.652-11.445s-18.941 5.4688-25.648 11.445c-3.3086 2.9414-5.9453 5.8945-7.7578 8.1172-0.375 0.45703-0.71484 0.88281-1.0117 1.2695zm74 0c3.4727 2.3008 3.4727 2.3047 3.4727 2.3047v0.003906l-0.007813 0.007812-0.0625 0.09375c-0.039063 0.058594-0.097656 0.14062-0.16797 0.24609-0.14453 0.20703-0.35156 0.50391-0.62109 0.87109-0.53906 0.73828-1.3242 1.7773-2.332 3.0156-2.0156 2.4648-4.957 5.7617-8.6719 9.0703-7.3281 6.5234-18.188 13.555-31.191 13.555s-23.863-7.0312-31.191-13.555c-3.7148-3.3086-6.6562-6.6055-8.6719-9.0703-1.0078-1.2383-1.793-2.2773-2.332-3.0156-0.26563-0.36719-0.47656-0.66406-0.62109-0.87109-0.070313-0.10547-0.12891-0.1875-0.16797-0.24609l-0.0625-0.09375-0.003906-0.007812-0.003907-0.003906s0-0.003907 3.4727-2.3047c-3.4727-2.3008-3.4727-2.3047-3.4727-2.3047l0.003907-0.003906 0.003906-0.007812 0.0625-0.09375c0.039063-0.058594 0.097656-0.14062 0.16797-0.24609 0.14453-0.20703 0.35547-0.50391 0.62109-0.87109 0.53906-0.73828 1.3242-1.7773 2.332-3.0156 2.0156-2.4688 4.957-5.7617 8.6719-9.0703 7.3281-6.5234 18.188-13.555 31.191-13.555s23.863 7.0312 31.191 13.555c3.7148 3.3086 6.6562 6.6016 8.6719 9.0703 1.0078 1.2383 1.793 2.2773 2.332 3.0156 0.26953 0.36719 0.47656 0.66406 0.62109 0.87109 0.070313 0.10547 0.12891 0.1875 0.16797 0.24609l0.0625 0.09375 0.007813 0.007812v0.003906s0 0.003907-3.4727 2.3047zm0 0 3.4727 2.3008 1.5273-2.3008-1.5273-2.3008zm-79.164 0-3.4727 2.3008-1.5273-2.3008 1.5273-2.3008z" fill-rule="evenodd"/>
 <path d="m50 33.332c-9.2031 0-16.668 7.4648-16.668 16.668s7.4648 16.668 16.668 16.668 16.668-7.4648 16.668-16.668-7.4648-16.668-16.668-16.668z" fill-rule="evenodd"/>
<text x="0.0" y="117.5" font-size="5.0" font-weight="bold" font-family="Arbeit Regular, Helvetica, Arial-Unicode, Arial, Sans-serif" fill="#000000">Created by Kawalan Icon</text><text x="0.0" y="122.5" font-size="5.0" font-weight="bold" font-family="Arbeit Regular, Helvetica, Arial-Unicode, Arial, Sans-serif" fill="#000000">from Noun Project</text></svg>