<svg xmlns="http://www.w3.org/2000/svg" xmlns:xlink="http://www.w3.org/1999/xlink" version="1.1" x="0px" y="0px" viewBox="0 0 100 125" style="enable-background:new 0 0 100 100;" xml:space="preserve"><path d="M35.7964821,69.077507c-8.5264587,0-17.0529175-3.2451401-23.5436745-9.7363815  c-6.2892661-6.2892647-9.7528076-14.6504707-9.7528076-23.5441589c0-8.8946533,3.4635417-17.2558594,9.7528076-23.5441589  C18.5415897,5.9635415,26.9027958,2.5,35.7964821,2.5s17.2553787,3.4645081,23.5441589,9.7528076l0,0  c0.0004845,0,0-0.0009661,0.0004845,0c6.2887802,6.2882996,9.752327,14.6495056,9.752327,23.5441589  c0,8.8936882-3.4635468,17.2548943-9.7528114,23.5441589C52.849884,65.8323669,44.3234253,69.077507,35.7964821,69.077507z   M35.7964821,8.4375c-7.3078403,0-14.177906,2.8460188-19.3451939,8.0133057  C11.2835178,21.6180935,8.437499,28.4881592,8.437499,35.7969666c0,7.3078423,2.8460188,14.177906,8.0133066,19.3461609  c10.6684608,10.6679764,28.0253105,10.6660461,38.6918373,0c5.1672897-5.1682549,8.0133057-12.0383186,8.0133057-19.3461609  c0-7.3088074-2.8460159-14.1788731-8.0133057-19.3461609c0,0,0,0-0.0004807,0  C49.9748726,11.2835188,43.1048088,8.4375,35.7964821,8.4375z"/><path d="M48.6591339,21.6045628c-0.6209068,0-1.2466431-0.1942444-1.7810555-0.595295  c-6.2167892-4.6734619-14.7553253-4.9334221-21.2456017-0.6465149c-1.3674431,0.903574-3.2098656,0.5247498-4.112957-0.8417263  c-0.903574-1.3684082-0.5266819-3.2103481,0.8417263-4.1139221c8.5805759-5.664012,19.8665638-5.3199768,28.0837765,0.8552551  c1.3109093,0.9857178,1.5747337,2.8460178,0.5899811,4.1574097C50.4513054,21.1957798,49.5607758,21.6045628,48.6591339,21.6045628z  "/><path d="M85.8661118,97.5c-2.4111404,0-4.6778107-0.9393311-6.3825226-2.644043L62.0518494,77.4242172  c-1.7047119-1.7047119-2.6435585-3.9718628-2.6435585-6.3820419c0-2.4111404,0.9388466-4.6782913,2.644043-6.3830032  l2.6073189-2.6073227c1.7042313-1.7047119,3.9708939-2.644043,6.3820419-2.644043  c2.4111404,0,4.6778107,0.9393311,6.3825226,2.644043L94.855957,79.4835892C96.5611496,81.1883011,97.5,83.455452,97.5,85.8656311  c0,2.4111404-0.9388504,4.6782913-2.644043,6.3830032l-2.6073227,2.6073227C90.5439224,96.5606689,88.2772598,97.5,85.8661118,97.5z   M71.0416946,65.3453064c-0.8248138,0-1.6003418,0.3208389-2.1835632,0.904541c0,0,0,0-0.0004807,0l-2.6073227,2.6073227  c-1.2041168,1.2050858-1.2041168,3.1639557,0,4.3690491L83.6820755,90.657959c1.2046051,1.2041245,3.1639557,1.2041245,4.3685608,0  l2.6073227-2.6073227c1.2041245-1.2050858,1.2041245-3.1639557,0-4.3690491L73.2262192,66.2498474  C72.6425171,65.6661453,71.8669891,65.3453064,71.0416946,65.3453064z M66.7586517,64.1508484h0.0096664H66.7586517z"/><path d="M65.4549942,68.4232559c-0.7595825,0-1.5191689-0.289917-2.0990028-0.869751l-8.2133484-8.2123795  c-1.159668-1.1587029-1.159668-3.0383301-0.0004807-4.197998c1.159668-1.159668,3.0388107-1.159668,4.1984787,0l8.2133522,8.2123833  c1.159668,1.1587029,1.159668,3.0383263,0.0004807,4.1979942C66.9746399,68.1333389,66.2145767,68.4232559,65.4549942,68.4232559z"/><text x="0" y="115" fill="#000000" font-size="5px" font-weight="bold" font-family="'Helvetica Neue', Helvetica, Arial-Unicode, Arial, Sans-serif">Created by reniakotonoha</text><text x="0" y="120" fill="#000000" font-size="5px" font-weight="bold" font-family="'Helvetica Neue', Helvetica, Arial-Unicode, Arial, Sans-serif">from the Noun Project</text></svg>